<svg xmlns="http://www.w3.org/2000/svg" width="22.58" height="27.097" viewBox="0 0 22.58 27.097"><defs><style>.a{fill:#fefefe;}</style></defs><g transform="translate(-42.675)"><g transform="translate(42.675)"><path class="a" d="M65.175,22.855l-1.939-3.231a9.6,9.6,0,0,1-1.368-4.938V11.855a7.913,7.913,0,0,0-5.645-7.57V2.258a2.258,2.258,0,0,0-4.516,0V4.285a7.913,7.913,0,0,0-5.645,7.57v2.831a9.6,9.6,0,0,1-1.367,4.937l-1.939,3.231a.566.566,0,0,0,.483.856H64.691a.564.564,0,0,0,.484-.855Z" transform="translate(-42.675)"/></g><g transform="translate(50.409 24.839)"><path class="a" d="M188.815,469.333a3.928,3.928,0,0,0,7.111,0Z" transform="translate(-188.815 -469.333)"/></g></g></svg>