<svg xmlns="http://www.w3.org/2000/svg" width="31.798" height="33.275" viewBox="0 0 31.798 33.275"><defs><style>.a{fill:#fefefe;}.b{fill:#fff;}.c{fill:#cd3d3d;}</style></defs><g transform="translate(-773.582 -20.726)"><g transform="translate(730.907 26.903)"><g transform="translate(42.675)"><path class="a" d="M65.175,22.855l-1.939-3.231a9.6,9.6,0,0,1-1.368-4.938V11.855a7.913,7.913,0,0,0-5.645-7.57V2.258a2.258,2.258,0,0,0-4.516,0V4.285a7.913,7.913,0,0,0-5.645,7.57v2.831a9.6,9.6,0,0,1-1.367,4.937l-1.939,3.231a.566.566,0,0,0,.483.856H64.691a.564.564,0,0,0,.484-.855Z" transform="translate(-42.675)"/></g><g transform="translate(50.409 24.839)"><path class="a" d="M188.815,469.333a3.928,3.928,0,0,0,7.111,0Z" transform="translate(-188.815 -469.333)"/></g></g><g transform="translate(575.5 -765.5)"><circle class="b" cx="6.5" cy="6.5" r="6.5" transform="translate(216 787)"/><path class="c" d="M7.347,0a7.347,7.347,0,1,0,7.347,7.347A7.356,7.356,0,0,0,7.347,0ZM8.765,11.733H6.924V4.555H6.887L4.621,6.119V4.444l2.3-1.594H8.765v8.884Z" transform="translate(215.186 786.226)"/></g></g></svg>