<svg xmlns="http://www.w3.org/2000/svg" width="28.517" height="28.5" viewBox="0 0 28.517 28.5"><defs><style>.a{fill:#fff;}</style></defs><path class="a" d="M0,28.19V12.642a.312.312,0,0,1,.31-.312H16.847a3.27,3.27,0,0,0,3.27-3.272V7.477a3.27,3.27,0,0,0-3.27-3.272H.31A.31.31,0,0,1,0,3.894V.312A.31.31,0,0,1,.31,0H16.847a7.473,7.473,0,0,1,7.469,7.475V9.167a8.381,8.381,0,0,1-.658,3.219.306.306,0,0,0,.177.414,7.44,7.44,0,0,1,3.281,2.411,7.131,7.131,0,0,1,1.4,4.282v1.841A7.18,7.18,0,0,1,21.358,28.5H.31A.31.31,0,0,1,0,28.19Zm24.316-7.166v-1.22a3.27,3.27,0,0,0-3.27-3.272H4.511a.31.31,0,0,0-.31.312v7.144a.312.312,0,0,0,.31.312H21.048A3.276,3.276,0,0,0,24.316,21.025Z"/></svg>