<svg xmlns="http://www.w3.org/2000/svg" xmlns:xlink="http://www.w3.org/1999/xlink" width="64.612" height="64.612" viewBox="0 0 64.612 64.612"><defs><style>.a{fill:#2935a2;}.b{fill:#fefefe;}.c{filter:url(#a);}</style><filter id="a" x="0" y="0" width="64.612" height="64.612" filterUnits="userSpaceOnUse"><feOffset dy="3" input="SourceAlpha"/><feGaussianBlur stdDeviation="3" result="b"/><feFlood flood-opacity="0.161"/><feComposite operator="in" in2="b"/><feComposite in="SourceGraphic"/></filter></defs><g transform="translate(-180.342 -708.046)"><g class="c" transform="matrix(1, 0, 0, 1, 180.34, 708.05)"><circle class="a" cx="23.306" cy="23.306" r="23.306" transform="translate(9 6)"/></g><g transform="translate(199.998 724.893)"><path class="b" d="M21.527,0H4.476A4.483,4.483,0,0,0,0,4.476V20.731a4.484,4.484,0,0,0,4.476,4.483H21.519a4.483,4.483,0,0,0,4.476-4.476V4.476A4.471,4.471,0,0,0,21.527,0ZM2.364,20.739V4.476A2.112,2.112,0,0,1,4.476,2.364H6.942V22.85H4.476A2.112,2.112,0,0,1,2.364,20.739Zm21.274,0a2.112,2.112,0,0,1-2.112,2.112H9.314V2.364H21.527a2.112,2.112,0,0,1,2.112,2.112Z"/><path class="b" d="M17,14.233q1.395-1.418,2.813-2.805A.937.937,0,1,1,21.2,12.7a.364.364,0,0,1-.055.055c-.693.709-1.41,1.41-2.183,2.175.764.749,1.481,1.45,2.183,2.159a.912.912,0,0,1,.118,1.284,1.336,1.336,0,0,1-.189.173.863.863,0,0,1-1.2-.087q-1.454-1.418-2.884-2.876a.9.9,0,0,1-.079-1.261A1.123,1.123,0,0,1,17,14.233Z" transform="translate(-3.539 -2.359)"/></g></g></svg>