<svg xmlns="http://www.w3.org/2000/svg" width="16.666" height="12.5" viewBox="0 0 16.666 12.5"><defs><style>.a{fill:#fff;}</style></defs><path class="a" d="M15.625,71.292a6.25,6.25,0,0,0-3.88-5.782l-1.328,2.657V64.521A.521.521,0,0,0,9.9,64H6.771a.521.521,0,0,0-.521.521v3.646L4.921,65.51a6.25,6.25,0,0,0-3.88,5.782v2.083H15.625Zm.521,3.125H.521A.521.521,0,0,0,0,74.937v1.042a.521.521,0,0,0,.521.521H16.146a.521.521,0,0,0,.521-.521V74.937A.521.521,0,0,0,16.146,74.416Z" transform="translate(0 -64)"/></svg>