<svg xmlns="http://www.w3.org/2000/svg" width="21.975" height="31.972" viewBox="0 0 21.975 31.972"><defs><style>.a{fill:#fff;}</style></defs><path class="a" d="M36.614,0A12.1,12.1,0,0,0,25.867,5.684a1.5,1.5,0,0,0,.323,2.053L28.884,9.78a1.5,1.5,0,0,0,2.076-.259c1.564-1.96,2.724-3.088,5.168-3.088,1.921,0,4.3,1.236,4.3,3.1,0,1.408-1.163,2.132-3.059,3.195-2.212,1.24-5.139,2.784-5.139,6.645v.611a1.5,1.5,0,0,0,1.5,1.5h4.525a1.5,1.5,0,0,0,1.5-1.5v-.36c0-2.676,7.822-2.788,7.822-10.03C47.572,4.137,41.915,0,36.614,0Zm-.626,23.321a4.326,4.326,0,1,0,4.326,4.326A4.331,4.331,0,0,0,35.988,23.321Z" transform="translate(-25.597)"/></svg>