<svg xmlns="http://www.w3.org/2000/svg" width="18.062" height="12.644" viewBox="0 0 18.062 12.644"><defs><style>.a{fill:#ccc;}</style></defs><path class="a" d="M2.709,37.419A1.806,1.806,0,1,0,.9,35.612,1.808,1.808,0,0,0,2.709,37.419Zm12.644,0a1.806,1.806,0,1,0-1.806-1.806A1.808,1.808,0,0,0,15.353,37.419Zm.9.9H14.45a1.8,1.8,0,0,0-1.273.525,4.128,4.128,0,0,1,2.12,3.088h1.863a.9.9,0,0,0,.9-.9v-.9A1.808,1.808,0,0,0,16.256,38.322Zm-7.225,0A3.161,3.161,0,1,0,5.87,35.161,3.159,3.159,0,0,0,9.031,38.322Zm2.167.9h-.234a4.364,4.364,0,0,1-3.867,0H6.864a3.252,3.252,0,0,0-3.251,3.251v.813a1.355,1.355,0,0,0,1.355,1.355H13.1a1.355,1.355,0,0,0,1.355-1.355v-.813A3.252,3.252,0,0,0,11.2,39.225Zm-6.313-.378a1.8,1.8,0,0,0-1.273-.525H1.806A1.808,1.808,0,0,0,0,40.128v.9a.9.9,0,0,0,.9.9h1.86a4.139,4.139,0,0,1,2.122-3.088Z" transform="translate(0 -32)"/></svg>