<svg xmlns="http://www.w3.org/2000/svg" width="12.936" height="17.248" viewBox="0 0 12.936 17.248"><defs><style>.a{fill:#46a4b1;}</style></defs><path class="a" d="M6.128,8.628a3.25,3.25,0,0,1-.067-1.58C6.343,7.048,6.317,8.291,6.128,8.628Zm-.057,1.59a15.545,15.545,0,0,1-.957,2.112,12.4,12.4,0,0,1,2.119-.738,4.364,4.364,0,0,1-1.162-1.374Zm-3.17,4.2c0,.027.445-.182,1.176-1.354A4.656,4.656,0,0,0,2.9,14.422ZM8.355,5.39h4.582V16.44a.807.807,0,0,1-.809.809H.809A.807.807,0,0,1,0,16.44V.809A.807.807,0,0,1,.809,0H7.546V4.582A.811.811,0,0,0,8.355,5.39Zm-.27,5.788A3.381,3.381,0,0,1,6.647,9.365,4.842,4.842,0,0,0,6.856,7.2a.844.844,0,0,0-1.61-.229,5.6,5.6,0,0,0,.273,2.594,31.634,31.634,0,0,1-1.374,2.89s0,0-.007,0c-.913.468-2.479,1.5-1.836,2.291a1.047,1.047,0,0,0,.724.337c.6,0,1.2-.606,2.058-2.082a19.2,19.2,0,0,1,2.661-.782,5.105,5.105,0,0,0,2.156.657.872.872,0,0,0,.664-1.462C10.1,10.962,8.735,11.094,8.085,11.178ZM12.7,3.537,9.4.236A.808.808,0,0,0,8.826,0h-.2V4.312h4.312V4.107A.806.806,0,0,0,12.7,3.537Zm-2.5,8.6c.138-.091-.084-.4-1.442-.3C10.012,12.367,10.2,12.138,10.2,12.138Z"/></svg>